<?xml version="1.0" encoding="utf-8"?>
<!-- Generator: Adobe Illustrator 24.1.2, SVG Export Plug-In . SVG Version: 6.00 Build 0)  -->
<svg version="1.1" id="Calque_1" xmlns="http://www.w3.org/2000/svg" xmlns:xlink="http://www.w3.org/1999/xlink" x="0px" y="0px"
	 viewBox="0 0 480 480" style="enable-background:new 0 0 480 480;" xml:space="preserve">
<style type="text/css">
	.st0{fill:#E0E0E0;stroke:#FFFFFF;stroke-width:3;stroke-miterlimit:10;}
	.st1{fill:#D9D9D9;stroke:#FFFFFF;stroke-width:3;stroke-miterlimit:10;}
	.st2{fill:#EEEEEE;stroke:#FFFFFF;stroke-width:3;stroke-miterlimit:10;}
	.st3{fill:#DEC1AF;stroke:#FFFFFF;stroke-width:3;stroke-miterlimit:10;}
	.st4{fill:#F5F5F5;stroke:#FFFFFF;stroke-width:3;stroke-miterlimit:10;}
</style>
<path class="st0" d="M480.1,384V101.9c0-21-17.1-38-38.2-38H38.3c-21.1,0-38.2,17-38.2,38l0,282c0,21,17.1,38,38.2,38h403.6
	C463,421.9,480.1,404.9,480.1,384z"/>
<path class="st1" d="M480.1,101.9c0-21-17.1-38-38.2-38H38.3c-21.1,0-38.2,17-38.2,38l0,282c0,21,17.1,38,38.2,38h180L480.1,101.9z"
	/>
<path class="st2" d="M0,107.3l0,276.6c0,21,17.1,38,38.2,38h390.1L0,107.3z"/>
<path class="st0" d="M297.1,325.5L0.1,107.3l0,276.6c0,21,17.1,38,38.2,38h182.8L297.1,325.5z"/>
<path class="st3" d="M0,101.9l0,282c0,21,17.1,38,38.2,38h16.4V112.7h370.9V422h16.4c21.1,0,38.2-17,38.2-38V101.9
	c0-21-17.1-16.3-38.2-16.3H38.3C17.2,85.6,0.1,80.9,0,101.9z"/>
<path class="st4" d="M0.1,101.8c0,13.1,16.6,24.5,16.6,24.5l223.4,157.3l223.4-157.2c0,0,16.6-11.4,16.6-24.5
	c0-21.3-17.1-38-38.2-38H240.1H38.3C17.2,63.9,0.1,80.6,0.1,101.8z"/>
<path class="st3" d="M0.1,101.8c0,13.1,16.6,24.5,16.6,24.5l223.4,157.3l223.4-157.2c0,0,16.6-11.4,16.6-24.5
	c0-18.5-12.9-33.5-30-37.1l-210,145.5L30.1,64.8C13,68.4,0.1,83.4,0.1,101.8z"/>
</svg>
