<?xml version="1.0" encoding="utf-8"?>
<!-- Generator: Adobe Illustrator 24.1.2, SVG Export Plug-In . SVG Version: 6.00 Build 0)  -->
<svg version="1.1" id="Layer_1" xmlns="http://www.w3.org/2000/svg" xmlns:xlink="http://www.w3.org/1999/xlink" x="0px" y="0px"
	 viewBox="0 0 410.2 410.2" style="enable-background:new 0 0 410.2 410.2;" xml:space="preserve">
<style type="text/css">
	.st0{fill:#FFFFFF;}
</style>
<path class="st0" d="M6.5,47.7c-4.2-2.3-8.3,3.5-5.7,8.2l0,0C10.5,73.4,22.4,89,36,102.3c3.6,3.5,5.6,8.6,5.6,14.1v1.6
	c0,34,5.5,69.5,15.9,102.9c10.9,35,26.6,66.6,46.7,94c21.6,29.4,47.2,52.5,76.3,68.7c31.7,17.6,66.7,26.6,104.2,26.6
	c42.8,0,85-13.7,122-39.5c2.7-1.9,4.1-5.7,3.4-9.3c-0.8-3.7-3.5-6.1-6.6-6.1l-10.2,0c-32.8,0-64.3-11.5-91.4-33.4
	c32.6-6.4,59.9-34.4,70-72.5l0,0c1.1-4-1.8-7.9-5.3-7.2l0,0c-4.9,1.1-9.9,1.7-14.9,1.7c-0.6,0-1.3,0-1.9,0
	c31.2-17.2,52.1-55.2,51.6-98.1l0,0c0-4.2-3.8-6.8-6.9-4.8l0,0c-6.3,4.2-13.1,7.4-20.2,9.4c16.7-19.8,26.4-47,26.4-75.8
	c0-18.8-4.1-37.3-12-53.4l0,0c-1.6-3.4-5.5-3.7-7.6-0.7l0,0c-40,59-96.6,95.3-159.4,102.4c-0.1,0-0.2,0-0.3,0
	c-0.9,0-1.8-0.5-2.4-1.3c-0.4-0.5-0.9-1.5-0.8-3c1.2-12.8,0.5-26-2.1-39.1c-6.9-35.1-29.1-63.5-57.7-74.2c-9.3-3.5-18.7-5.2-28-5.2
	C108.7,0,88,9.4,71.8,26.5C69.7,28.8,67,30,64.2,30c-0.9,0-1.8-0.1-2.7-0.4C46.3,25,31.8,17.8,18.3,8.1l0,0
	c-3.7-2.6-8.1,1.6-6.8,6.5l0,0C16.1,31.7,24.1,47,34.8,59.2C25.1,56.4,15.6,52.6,6.5,47.7L6.5,47.7z"/>
</svg>
