<?xml version="1.0" encoding="utf-8"?>
<!-- Generator: Adobe Illustrator 24.1.2, SVG Export Plug-In . SVG Version: 6.00 Build 0)  -->
<svg version="1.1" id="Calque_1" xmlns="http://www.w3.org/2000/svg" xmlns:xlink="http://www.w3.org/1999/xlink" x="0px" y="0px"
	 viewBox="0 0 512 512" style="enable-background:new 0 0 512 512;" xml:space="preserve">
<style type="text/css">
	.st0{fill-rule:evenodd;clip-rule:evenodd;fill:#FFFFFF;}
</style>
<path class="st0" d="M256,0C114.6,0,0,117.5,0,262.5c0,115.9,73.3,214.4,175.1,249.1c12.8,2.4,17.5-5.6,17.5-12.6
	c0-6.2-0.3-22.7-0.3-44.6C121,470.1,106,419.1,106,419.1c-11.7-30.3-28.4-38.4-28.4-38.4c-23.3-16.2,1.7-15.9,1.7-15.9
	c25.7,1.9,39.2,27,39.2,27c22.8,40.2,59.9,28.5,74.5,21.9c2.3-17,9-28.5,16.3-35.1c-56.8-6.6-116.6-29.1-116.6-129.7
	c0-28.7,10-52.1,26.3-70.5c-2.6-6.6-11.4-33.3,2.5-69.5c0,0,21.5-7,70.4,26.9c20.4-5.8,42.3-8.7,64.1-8.8c21.8,0.1,43.7,3,64.1,8.8
	c48.9-33.9,70.3-26.9,70.3-26.9c14,36.1,5.3,62.9,2.6,69.5c16.4,18.4,26.3,41.8,26.3,70.5c0,100.8-59.8,122.9-116.8,129.5
	c9.2,8,17.3,24.1,17.3,48.5c0,35.1-0.3,63.4-0.3,72c0,7,4.6,15.2,17.6,12.6C438.8,476.7,512,378.4,512,262.5
	C512,117.5,397.4,0,256,0z"/>
</svg>
