<?xml version="1.0" encoding="utf-8"?>
<!-- Generator: Adobe Illustrator 24.1.2, SVG Export Plug-In . SVG Version: 6.00 Build 0)  -->
<svg version="1.1" id="Calque_1" xmlns="http://www.w3.org/2000/svg" xmlns:xlink="http://www.w3.org/1999/xlink" x="0px" y="0px"
	 viewBox="0 0 480 480" style="enable-background:new 0 0 480 480;" xml:space="preserve">
<style type="text/css">
	.st0{fill:#E0E0E0;stroke:#FFFFFF;stroke-width:3;stroke-miterlimit:10;}
	.st1{fill:#D9D9D9;stroke:#FFFFFF;stroke-width:3;stroke-miterlimit:10;}
	.st2{fill:#EEEEEE;stroke:#FFFFFF;stroke-width:3;stroke-miterlimit:10;}
	.st3{fill:#DEC1AF;stroke:#FFFFFF;stroke-width:3;stroke-miterlimit:10;}
	.st4{fill:#F5F5F5;stroke:#FFFFFF;stroke-width:3;stroke-miterlimit:10;}
</style>
<path class="st0" d="M38.2,421.9h403.6c21.1,0,38.2-17,38.2-38v-282c0-21-17.1-38-38.2-38H38.2c-21.1,0-38.2,17-38.2,38V384
	C0,404.9,17.1,421.9,38.2,421.9z"/>
<path class="st1" d="M261.8,421.9h180c21.1,0,38.2-17,38.2-38v-282c0-21-17.1-38-38.2-38H38.2c-21.1,0-38.2,17-38.2,38L261.8,421.9z
	"/>
<path class="st2" d="M51.8,421.9h390.1c21.1,0,38.2-17,38.2-38V107.3L51.8,421.9z"/>
<path class="st0" d="M259,421.9h182.8c21.1,0,38.2-17,38.2-38V107.3L183,325.5L259,421.9z"/>
<path class="st3" d="M441.8,85.6H38.2C17.1,85.6,0,80.9,0,101.9V384c0,21,17.1,38,38.2,38h16.4V112.7h370.9v309.2h16.4
	c21.1,0,38.2-17,38.2-38v-282C480,80.9,462.9,85.6,441.8,85.6z"/>
<path class="st4" d="M441.8,63.9H240H38.2C17.1,63.9,0,80.6,0,101.9c0,13.1,16.6,24.5,16.6,24.5L240,283.6l223.4-157.3
	c0,0,16.6-11.4,16.6-24.5C480,80.6,462.9,63.9,441.8,63.9z"/>
<path class="st3" d="M450,64.8L240,210.3L30,64.8C12.9,68.4,0,83.4,0,101.9c0,13.1,16.6,24.5,16.6,24.5L240,283.6l223.4-157.3
	c0,0,16.6-11.4,16.6-24.5C480,83.4,467.1,68.4,450,64.8z"/>
</svg>
