<?xml version="1.0" encoding="utf-8"?>
<!-- Generator: Adobe Illustrator 24.1.2, SVG Export Plug-In . SVG Version: 6.00 Build 0)  -->
<svg version="1.1" id="Layer_1" xmlns="http://www.w3.org/2000/svg" xmlns:xlink="http://www.w3.org/1999/xlink" x="0px" y="0px"
	 viewBox="0 0 410.2 410.2" style="enable-background:new 0 0 410.2 410.2;" xml:space="preserve">
<style type="text/css">
	.st0{fill:#FFFFFF;}
</style>
<path class="st0" d="M403.6,47.7c-9.1,4.9-18.6,8.7-28.3,11.5C386,47,394.1,31.7,398.6,14.6l0,0c1.3-4.9-3.1-9.1-6.8-6.5l0,0
	c-13.5,9.6-28,16.9-43.2,21.5c-0.9,0.3-1.8,0.4-2.7,0.4c-2.8,0-5.5-1.2-7.6-3.5C322.2,9.4,301.4,0,279.8,0c-9.3,0-18.8,1.7-28,5.2
	c-28.7,10.7-50.8,39.1-57.7,74.2c-2.6,13.2-3.3,26.3-2.1,39.1c0.1,1.5-0.4,2.5-0.8,3c-0.6,0.8-1.5,1.3-2.4,1.3c-0.1,0-0.2,0-0.3,0
	c-62.8-7-119.4-43.4-159.4-102.4l0,0c-2-3-6-2.6-7.6,0.7l0,0c-7.8,16.2-12,34.6-12,53.4c0,28.8,9.6,56,26.4,75.8
	c-7-2-13.8-5.2-20.2-9.4l0,0c-3.1-2-6.8,0.6-6.9,4.8l0,0c-0.4,42.8,20.4,80.9,51.6,98.1c-0.6,0-1.3,0-1.9,0c-5,0-10-0.6-14.9-1.7
	l0,0c-3.4-0.8-6.3,3.1-5.3,7.2l0,0c10.1,38.1,37.4,66.1,70,72.5c-27.1,21.8-58.6,33.4-91.4,33.4l-10.2,0c-3.2,0-5.8,2.5-6.6,6.1
	c-0.8,3.6,0.7,7.4,3.4,9.3c37,25.9,79.1,39.5,122,39.5c37.5,0,72.5-8.9,104.2-26.6c29-16.2,54.7-39.3,76.3-68.7
	c20.1-27.4,35.8-59,46.7-94c10.4-33.3,15.9-68.9,15.9-102.9v-1.6c0-5.5,2.1-10.6,5.6-14.1c13.6-13.3,25.4-28.9,35.2-46.4l0,0
	C411.9,51.3,407.9,45.5,403.6,47.7L403.6,47.7z"/>
</svg>
