<?xml version="1.0" encoding="utf-8"?>
<!-- Generator: Adobe Illustrator 24.1.2, SVG Export Plug-In . SVG Version: 6.00 Build 0)  -->
<svg version="1.1" id="Calque_1" xmlns="http://www.w3.org/2000/svg" xmlns:xlink="http://www.w3.org/1999/xlink" x="0px" y="0px"
	 viewBox="0 0 24 24" style="enable-background:new 0 0 24 24;" xml:space="preserve">
<style type="text/css">
	.st0{fill:#FFFFFF;}
</style>
<path class="st0" d="M0,5l0,14c0,2.8,2.2,5,5,5h14c2.8,0,5-2.2,5-5V5c0-2.8-2.2-5-5-5L5,0C2.2,0,0,2.2,0,5z M16,8h3v11h-3V8z
	 M15.8,5c0-1,0.8-1.8,1.8-1.8S19.3,4,19.3,5s-0.8,1.8-1.8,1.8C16.5,6.7,15.8,5.9,15.8,5z M4,12.2C4,7,9.6,7.2,11,9.8V8h3v11h-3v-5.6
	c0-3.1-4-3.4-4,0V19H4V12.2z"/>
</svg>
