<?xml version="1.0" encoding="utf-8"?>
<!-- Generator: Adobe Illustrator 24.1.2, SVG Export Plug-In . SVG Version: 6.00 Build 0)  -->
<svg version="1.1" id="Calque_1" xmlns="http://www.w3.org/2000/svg" xmlns:xlink="http://www.w3.org/1999/xlink" x="0px" y="0px"
	 viewBox="0 0 512 512" style="enable-background:new 0 0 512 512;" xml:space="preserve">
<style type="text/css">
	.st0{fill-rule:evenodd;clip-rule:evenodd;fill:#FFFFFF;}
</style>
<path class="st0" d="M0,262.5c0,115.9,73.2,214.2,174.9,249c13,2.6,17.6-5.6,17.6-12.6c0-8.6-0.3-36.9-0.3-72
	c0-24.4,8.1-40.5,17.3-48.5c-57-6.6-116.8-28.7-116.8-129.5c0-28.7,9.9-52.1,26.3-70.5c-2.7-6.6-11.4-33.4,2.6-69.5
	c0,0,21.4-7,70.3,26.9c20.4-5.8,42.3-8.7,64.1-8.8c21.8,0.1,43.7,3,64.1,8.8c48.9-33.9,70.4-26.9,70.4-26.9
	c13.9,36.2,5.1,62.9,2.5,69.5c16.3,18.4,26.3,41.8,26.3,70.5c0,100.6-59.8,123.1-116.6,129.7c7.3,6.6,14,18.1,16.3,35.1
	c14.6,6.6,51.7,18.3,74.5-21.9c0,0,13.5-25.1,39.2-27c0,0,25-0.3,1.7,15.9c0,0-16.7,8.1-28.4,38.4c0,0-15,51-86.3,35.3
	c0,21.9-0.3,38.4-0.3,44.6c0,7,4.7,15,17.5,12.6C438.7,476.9,512,378.4,512,262.5C512,117.5,397.4,0,256,0S0,117.5,0,262.5z"/>
</svg>
